<svg xmlns="http://www.w3.org/2000/svg" xmlns:xlink="http://www.w3.org/1999/xlink" viewBox="0 0 619 826">
  <defs>
    <path d="M302.567 823.733C75.081 747.306-24.128 511.094 4.94 115.096 89.852 62.668 191.372 24.303 309.5 0c118.128 24.303 219.648 62.668 304.56 115.096C643.422 515.094 541.902 752.062 309.5 826z" id="a"/>
  </defs>
  <g fill="none" fill-rule="evenodd">
    <mask id="b" fill="#fff">
      <use xlink:href="#a"/>
    </mask>
    <path stroke="#A0916F" stroke-width="21" d="M305.871 813.766l3.652 1.195C533.047 741.969 631.6 511.81 603.975 121.233 521.602 71.223 423.457 34.37 309.5 10.722 195.543 34.37 97.398 71.222 15.025 121.233-12.45 509.72 84.918 739.511 305.871 813.766z"/>
    <path d="M311.76 245.773l.275.478.205-.354 649.52 375-100 173.206-549.868-317.467-549.652 317.342-100-173.205 649.52-375z" fill="#A0916F" mask="url(#b)"/>
  </g>
</svg>
