<svg width="500" height="500" xmlns="http://www.w3.org/2000/svg"><path d="M387.5 249.578v-.065c0-66.967-48.18-123.7-113.389-134.993l-1.659-.287-.001-42.637 45.639 11.465-68.252-79.98-68.251 79.98 45.639-11.465-.002 42.856-1.64.3C160.993 126.582 113.5 183.033 113.5 249.513c0 75.754 61.238 136.987 137 136.987 74.917 0 135.772-59.926 136.981-134.703l.019-2.219zm-28-.065c0 60.199-48.788 108.987-108.988 108.987-60.203 0-109.012-48.793-109.012-108.988 0-60.2 48.813-109.012 109.012-109.012 60.196 0 108.988 48.807 108.988 109.013zm-34-.001c0-41.426-33.577-75.012-75-75.012s-75 33.586-75 75.012c0 41.42 33.573 74.988 75 74.988s75-33.568 75-74.988zm-27.009.825c-.446 26.125-21.76 47.163-47.992 47.163-26.51 0-48-21.488-48-48s21.489-48 48-48c26.513 0 48 21.488 48 48v.828l-.008.009zm-27.991-.324c0-11.329-9.17-20.513-20.49-20.513-11.32 0-20.51 9.19-20.51 20.513 0 11.317 9.184 20.487 20.512 20.487 11.322 0 20.487-9.165 20.488-20.487z" stroke="#979797" stroke-width="4" fill="#000" fill-rule="nonzero"/></svg>