<svg width="500" height="500" xmlns="http://www.w3.org/2000/svg"><path d="M250 82.643c-13.288 11.322-33.606 24.084-59.157 37.652-23.251 12.347-47.781 23.51-66.891 30.517 1.962 9.72 7.286 25.992 14.384 43.162 9.861 23.856 23.33 51.941 37.645 78.39 15.275 28.224 30.809 53.302 44.269 71.123 7.07 9.362 13.661 16.813 19.164 21.65 2.49 2.19 4.931 3.888 7.115 5.038 1.645.867 3.007 1.33 3.471 1.33.464 0 1.825-.463 3.47-1.33 2.184-1.15 4.625-2.848 7.116-5.038 5.503-4.837 12.094-12.288 19.164-21.65 13.46-17.821 28.994-42.899 44.269-71.123 14.314-26.447 27.783-54.532 37.645-78.39 7.098-17.17 12.422-33.44 14.385-43.162-19.11-7.006-43.64-18.169-66.893-30.517-25.553-13.57-45.87-26.33-59.156-37.652zm-102.89 7.572c-5.143 2.579-10.506 5.263-17.774 8.896l-9.716 4.858c-20.338 10.168-32.18 16.111-44.898 22.552L72 127.9v3.061c0 7.385 2.523 17.704 7.979 34.123 4.682 14.09 10.566 28.77 16.38 40.697l8.863-4.445c-5.559-11.425-11.348-25.87-15.844-39.402-3.272-9.845-5.904-20.031-6.977-26.573l-.238-1.447 1.31-.662c11.48-5.802 22.57-11.368 40.115-20.146l11.964-5.986c6.403-3.203 11.314-5.663 15.993-8.009l-4.434-8.896zm205.78 0l-4.435 8.896c4.626 2.32 9.485 4.753 15.8 7.913l12.094 6.05c17.548 8.78 28.675 14.365 40.179 20.18l1.308.66-.237 1.448c-1.072 6.536-3.703 16.723-6.976 26.572-4.5 13.54-10.288 27.982-15.845 39.403l8.864 4.444c5.814-11.93 11.698-26.613 16.379-40.697 5.456-16.419 7.979-26.737 7.979-34.123V127.9l-2.722-1.38c-12.686-6.424-24.512-12.36-44.778-22.491-1.385-.693-8.003-4-9.836-4.918-7.258-3.628-12.628-6.315-17.775-8.896zM251.507 114.4l5.236 6.01c5.14 5.9 19.844 14.695 37.406 22.606a420.704 420.704 0 007.074 3.106c6.48 2.776 13.3 5.532 21.03 8.531 2.903 1.127 5.76 2.221 9.402 3.606l4.226 1.604c1.608.61 2.76 1.05 3.834 1.46l5.76 2.205v6.179c0 4.655-1.076 9.32-3.672 17.105-2.108 6.323-5.079 13.83-8.864 22.471-7.05 16.1-16.659 35.483-27.171 54.939-10.36 19.175-20.837 37.011-29.563 50.262-4.677 7.103-8.655 12.615-12.097 16.704-1.987 2.36-3.632 4.08-5.333 5.515l-.257.218-.31.266c-2.517 2.153-4.404 3.09-7.787 3.25l-.327.015h-.19l-.327-.016c-3.384-.16-5.27-1.095-7.79-3.25l-.307-.264-.256-.218c-1.703-1.437-3.35-3.158-5.334-5.517-3.443-4.09-7.422-9.604-12.097-16.703-8.726-13.251-19.203-31.087-29.563-50.262-10.513-19.457-20.12-38.84-27.171-54.94-3.787-8.647-6.757-16.151-8.864-22.47-2.596-7.786-3.672-12.45-3.672-17.105v-6.18l1.285-.492 4.475-1.712a1611 1611 0 013.834-1.46l4.226-1.604c3.642-1.385 6.5-2.48 9.401-3.606 7.73-2.999 14.552-5.755 21.031-8.531a420.707 420.707 0 007.074-3.106c17.562-7.911 32.267-16.706 37.407-22.607l6.743-7.74 1.508 1.73zM250 138.594c-8.403 6.904-19.747 13.107-36.81 20.793-11.97 5.393-20.909 8.959-39.674 16.087a80.57 80.57 0 001.662 5.649c1.897 5.688 4.724 12.833 8.278 20.946 6.813 15.559 16.263 34.626 26.519 53.607 10.083 18.662 20.396 36.216 28.763 48.921 4.224 6.414 7.998 11.643 10.837 15.017.154.183.29.34.425.49.135-.15.27-.307.424-.49 2.84-3.374 6.614-8.603 10.838-15.017 8.367-12.706 18.68-30.26 28.763-48.922 10.256-18.981 19.706-38.047 26.52-53.606 3.554-8.116 6.38-15.26 8.278-20.95a77.594 77.594 0 001.659-5.646c-18.764-7.128-27.702-10.693-39.671-16.086-17.064-7.686-28.408-13.89-36.811-20.793zM205.72 374.34l-7.825 6.105.054.066a182.665 182.665 0 003.648 4.336c3.894 4.493 8.13 8.992 12.553 13.196C228.544 411.723 238.525 418 250 418c11.475 0 21.453-6.276 35.85-19.958 4.424-4.203 8.659-8.702 12.553-13.195a182.713 182.713 0 003.702-4.402l-7.825-6.105a175.725 175.725 0 01-3.4 4.033c-3.626 4.18-7.555 8.36-11.651 12.266l-.186.177c-10.162 9.656-22.497 17.236-29.043 17.236-6.546 0-18.881-7.58-29.042-17.236l-.186-.177c-4.097-3.907-8.026-8.086-11.653-12.266a175.678 175.678 0 01-3.399-4.033z" stroke="#979797" stroke-width="4" fill="#000" fill-rule="nonzero"/></svg>