<svg width="500" height="500" xmlns="http://www.w3.org/2000/svg"><path d="M250.008 72.491l-2.976 2.21c-53.399 39.947-102.15 61.515-170.921 72.92l-4.111.654v4.14c0 13.563 5.775 35.195 16.953 64.753 10.872 29.041 25.836 61.447 42.397 91.413 18.78 33.863 37.87 61.946 56.767 82.464C210.165 415.342 230.36 428 250.007 428c19.628 0 39.788-12.613 62.051-36.96 18.75-20.513 37.824-48.604 56.683-82.455 16.389-29.682 31.296-62.017 42.384-91.42C422.265 187.493 428 165.94 428 152.416v-4.143l-4.047-.653c-68.66-11.413-117.56-33.025-170.965-72.914l-2.98-2.214zM222.283 182.06l-79.98 68.252 79.98 68.251-11.464-45.639h42.088l-.004 2.004c-.086 45.44-.385 91.491-.896 138.153l-.022 1.979h-1.978c-19.123 0-38.264-11.998-58.882-34.717-17.345-18.831-34.798-44.508-51.949-75.429-15.093-27.31-28.728-56.836-38.641-83.314-10.28-27.18-15.602-47.118-15.602-60.002v-7.002l1.685-.268 5.239-.834c61.67-10.227 105.27-29.515 153.177-65.351l6.927-5.145.046 3.92c.533 45.594.835 91.853.906 138.777l.003 2.003H210.82l11.464-45.638z" stroke="#979797" stroke-width="4" fill="#000" fill-rule="nonzero"/></svg>