<svg width="145" height="1315" xmlns="http://www.w3.org/2000/svg"><path d="M45.71 381.03l.374-.008-.062-2-.655 1.89c.114.04.229.08.343.118zm52.532.415l.365-.114-.601-1.907-.161 1.993c.13.01.263.02.397.028zm42.295-8.957a393.351 393.351 0 005.132-1.783l-2.382-2.917c-.93 1.544-1.847 3.11-2.75 4.7zm-68.03 903.778c-.182 5.938-.366 11.867-.551 17.794-.146 4.653-.669 15.3-.944 18.258l-.613 2.128.28.08v.02h.065l1.577.454 2-.001v-.932l.278-.08-.28-.961v-.004l-.33-1.146c-.269-2.872-.77-13.007-.937-18.045l-.008-.228c-.18-5.775-.36-11.552-.537-17.337zM4.463 372.033c-.903-1.589-1.82-3.156-2.75-4.7l-2.382 2.917c1.75.621 3.46 1.216 5.132 1.783zm83.08-45.374l-30.17 20.958-.055 14.692c6.08.925 11.086 1.386 15.003 1.386 3.931 0 9.056-.464 15.36-1.395l-.137-35.64zm-.15-38.875l-29.87 20.749-.057 14.86 29.985-20.828-.057-14.78zm-.148-38.876l-29.571 20.54-.057 14.86 29.684-20.62-.056-14.78zm-.093-194.016a84.365 84.365 0 01-15.326 1.415c-4.702 0-9.355-.4-13.958-1.202.713 24.99.52 45.503-.58 61.548-1.316 19.214-4.888 45.927-10.713 80.157 3.523 2.569 6.035 5.095 7.528 7.618 1.62 2.738 2.85 6.847 3.746 12.373l.027.163-.11 28.261 29.386-20.412-.028-7.395.027-.163c.897-5.526 2.127-9.634 3.746-12.372 1.493-2.523 4.005-5.05 7.528-7.618-5.825-34.23-9.397-60.943-10.714-80.157-1.11-16.189-1.295-36.924-.56-62.216zm4.958-42.83l1.359.644-1.116-2.13-.243 1.485zm-3.41 20.83l-.234 1.427 1.655-1.651c-.48.077-.954.152-1.422.225zm-32.296.175a203.85 203.85 0 01-1.421-.224l1.654 1.65-.233-1.426zm-3.514-21.46l-.243-1.485-1.116 2.13 1.36-.646zm19.132-9.081l1.515-.72L72.679 0h-2v1.888l1.343.638z" stroke="#979797" stroke-width="4" fill="#000" fill-rule="nonzero"/></svg>