<svg width="500" height="500" xmlns="http://www.w3.org/2000/svg"><path d="M360.807 288.69a144.09 144.09 0 01-1.33 2.916l3.366-.404a567.412 567.412 0 00-2.036-2.512zm-30.341-34.304l-.761-.792.5 1.868c.089-.359.176-.717.26-1.076zm-15.87-15.92a86.246 86.246 0 01-.476 3.967l3.379-1.146a574.171 574.171 0 00-2.904-2.82zM425.433 426.43a701.716 701.716 0 012.78 5.468l2.686-2.684a698.475 698.475 0 01-5.466-2.784zm-187.618-111.2a575.55 575.55 0 002.822 2.91l1.151-3.377a85.591 85.591 0 01-3.973.466zm15.936 15.927c.359-.085.718-.172 1.077-.26l-1.87-.502.793.762zm34.351 30.44c.833.68 1.668 1.357 2.504 2.031l.401-3.365c-.965.456-1.933.9-2.905 1.334zM84.566 118.79a853.376 853.376 0 01-12.882-19.503l-3.153 2.436a1371.68 1371.68 0 0016.035 17.067zm28.445 28.747l1.378-1.828-1.597-1.204-1.408 1.42 1.627 1.612zm29.04 27.9l1.257 1.17 1.363-1.463-1.652-1.126-.968 1.418zm13.809 12.724l1.266-2.048-1.7-1.051-1.348 1.478 1.782 1.621zm29.741 26.215l1.616 1.38 1.297-1.523-1.441-1.387-1.472 1.53zm105.36 77.7h0s0 0 0 0h-.001 0zM213.406 186.47l-1.534 1.51 1.403 1.425 1.525-1.294-1.394-1.64zm-26.309-30c-.525-.582-1.051-1.163-1.578-1.744l-1.482 1.343 1.088 1.679 1.972-1.278zm-12.628-13.782l-1.418.949 1.111 1.662 1.468-1.358-1.16-1.253zm-27.753-29.072c-.54-.55-1.08-1.1-1.622-1.649l-1.424 1.404 1.202 1.598.077-.058.013-.01.082-.063 1.672-1.222zm-31.228-31.223a1390.966 1390.966 0 00-16.816-15.858l-2.44 3.15a850.54 850.54 0 0119.256 12.708z" stroke="#979797" stroke-width="4" fill="#000" fill-rule="nonzero"/></svg>